<svg xmlns="http://www.w3.org/2000/svg" xmlns:xlink="http://www.w3.org/1999/xlink" version="1.1" x="0px" y="0px" viewBox="10 10 80 80" enable-background="new 0 0 100 100" xml:space="preserve"><g><path fill="#000000" d="M24.979,24.68h-0.06h-8.46c-1.38,0-2.46,1.08-2.46,2.4v7.62c0,0.06,0,0.18,0,0.24V72.92   c0,1.32,1.08,2.4,2.46,2.4H83.6c1.32,0,2.4-1.08,2.4-2.4V34.94c0-0.061,0-0.181,0-0.24v-7.62c0-1.32-1.08-2.4-2.4-2.4H37.28H37.22   H24.979z M16.46,26.3h20.82c0.54,0,1.38,0.601,1.56,1.08l2.58,6.66h-25.8v-6.96C15.62,26.66,15.979,26.3,16.46,26.3L16.46,26.3z    M40.04,26.3H83.6c0.48,0,0.84,0.36,0.84,0.78v6.96H43.16l-2.82-7.2C40.28,26.6,40.16,26.48,40.04,26.3L40.04,26.3z M20.24,27.8   c-1.32,0-2.4,1.08-2.4,2.4c0,1.26,1.08,2.34,2.4,2.34c1.319,0,2.399-1.08,2.399-2.34C22.64,28.88,21.56,27.8,20.24,27.8L20.24,27.8   z M26.78,27.8c-1.32,0-2.4,1.08-2.4,2.4c0,1.26,1.08,2.34,2.4,2.34c1.319,0,2.399-1.08,2.399-2.34   C29.18,28.88,28.1,27.8,26.78,27.8L26.78,27.8z M33.32,27.8c-1.32,0-2.4,1.08-2.4,2.4c0,1.26,1.08,2.34,2.4,2.34   c1.319,0,2.399-1.08,2.399-2.34C35.72,28.88,34.64,27.8,33.32,27.8L33.32,27.8z M15.62,35.6h68.819v37.32   c0,0.48-0.359,0.841-0.84,0.841H16.46c-0.48,0-0.84-0.36-0.84-0.841V35.6z"/></g></svg>