<svg xmlns="http://www.w3.org/2000/svg" xmlns:xlink="http://www.w3.org/1999/xlink" version="1.1" x="0px" y="0px" viewBox="0 0 100 125" enable-background="new 0 0 100 100" xml:space="preserve"><g><path d="M62.1,5.1H36.9C27.6,5.1,20,12.5,20,21.6l-2,41.9c0,17.3,14.3,31.4,32,31.4c17.6,0,32-14.1,32-31.4l-3-41.9   C79,12.5,71.4,5.1,62.1,5.1z M48.8,27.7c0-0.6,0.5-1.2,1.2-1.2c0.7,0,1.2,0.5,1.2,1.2v18.2c0,0.6-0.5,1.2-1.2,1.2   c-0.6,0-1.2-0.5-1.2-1.2V27.7z M77.2,63.5C77.2,78.3,65,90.3,50,90.3s-27.2-12-27.2-26.7l2-41.9c0-6.5,5.4-11.9,12.1-11.9h10.8   v13.4c-1.7,0.9-2.8,2.6-2.8,4.6v18.2c0,2.2,1.3,4,3.2,4.8V55c0,1.1,0.9,2,2,2s2-0.9,2-2v-4.3c1.9-0.8,3.2-2.6,3.2-4.8V27.7   c0-2-1.2-3.7-2.8-4.6V9.7h9.8c6.7,0,12.1,5.3,12.1,11.9L77.2,63.5z"/></g><text x="0" y="115" fill="#000000" font-size="5px" font-weight="bold" font-family="'Helvetica Neue', Helvetica, Arial-Unicode, Arial, Sans-serif">Created by Calvin Goodman</text><text x="0" y="120" fill="#000000" font-size="5px" font-weight="bold" font-family="'Helvetica Neue', Helvetica, Arial-Unicode, Arial, Sans-serif">from the Noun Project</text></svg>