<svg xmlns="http://www.w3.org/2000/svg" viewBox="0 0 100 125" x="0px" y="0px"><path fill="#000000" d="M89.1 24.6c1.8-1.8 2.8-4.3 2.8-6.8 0-1.9-.5-3.7-1.6-5.3l1-1c.8-.8.8-2 0-2.8-.8-.8-2-.8-2.8 0l-1 1c-1.6-1-3.4-1.6-5.3-1.6-2.6 0-5 1-6.8 2.8L18.7 67.6c-.2.2-.3.3-.4.5L8.3 89c-.4.8-.2 1.7.4 2.3.4.4.9.6 1.4.6.3 0 .6-.1.9-.2l20.9-10c.2-.1.4-.2.5-.4l52.9-52.9c.8.9 1.5 2.2 1.6 3.3 0 .7-.2 1.4-.9 2L73.1 46.6c-.4.4-.6.9-.6 1.4 0 1.1.9 2 2 2 .6 0 1.1-.2 1.4-.6l12.9-12.9c1.4-1.4 2.1-3.1 2-5-.1-2.5-1.5-4.6-2.7-6l1-.9zM15.6 83l1.3 1.3-2.6 1.2 1.3-2.5zm14.2-4.8l-9 4.3-3.3-3.3 4.3-9 56.4-56.4c1.1-1.1 2.5-1.7 4-1.7s2.9.6 4 1.7 1.7 2.5 1.7 4-.6 2.9-1.7 4L29.8 78.2z"/><text x="0" y="115" fill="#000000" font-size="5px" font-weight="bold" font-family="'Helvetica Neue', Helvetica, Arial-Unicode, Arial, Sans-serif">Created by Calvin Goodman</text><text x="0" y="120" fill="#000000" font-size="5px" font-weight="bold" font-family="'Helvetica Neue', Helvetica, Arial-Unicode, Arial, Sans-serif">from the Noun Project</text></svg>