<?xml version="1.0" standalone="no"?>
<!DOCTYPE svg PUBLIC "-//W3C//DTD SVG 20010904//EN"
 "http://www.w3.org/TR/2001/REC-SVG-20010904/DTD/svg10.dtd">
<svg version="1.0" xmlns="http://www.w3.org/2000/svg"
 width="492.000000pt" height="379.000000pt" viewBox="0 0 492.000000 379.000000"
 preserveAspectRatio="xMidYMid meet">
<metadata>
Created by potrace 1.13, written by Peter Selinger 2001-2015
</metadata>
<g transform="translate(0.000000,379.000000) scale(0.100000,-0.100000)"
fill="#000000" stroke="none">
<path d="M323 3775 c-29 -8 -72 -24 -95 -36 -58 -29 -140 -109 -171 -167 -60
-110 -57 -27 -57 -1677 0 -1247 3 -1519 14 -1561 40 -150 160 -270 311 -310
41 -11 428 -14 2136 -14 1888 0 2091 2 2140 16 78 23 125 50 181 102 59 55 94
111 119 193 18 58 19 120 19 1577 0 1234 -3 1526 -14 1567 -40 151 -160 271
-310 311 -78 21 -4196 19 -4273 -1z m4235 -240 c49 -21 81 -52 103 -100 18
-38 19 -103 19 -1533 0 -1325 -2 -1497 -15 -1530 -21 -49 -52 -81 -100 -103
-38 -18 -118 -19 -2105 -19 -1987 0 -2067 1 -2105 19 -48 22 -79 54 -100 103
-13 33 -15 205 -15 1528 0 1323 2 1495 15 1528 21 49 52 81 100 103 38 18 119
19 2103 19 1839 0 2067 -2 2100 -15z"/>
<path d="M1815 2846 c-52 -19 -110 -84 -124 -140 -15 -59 -16 -1554 -1 -1607
32 -114 129 -174 238 -146 67 18 1249 750 1309 811 84 87 80 199 -9 282 -30
28 -1178 748 -1255 788 -47 24 -111 29 -158 12z m1192 -940 c8 -8 -122 -93
-528 -346 -297 -184 -544 -336 -549 -338 -6 -2 -10 246 -10 682 l0 685 538
-336 c295 -184 542 -340 549 -347z"/>
</g>
</svg>
