<svg xmlns="http://www.w3.org/2000/svg" xmlns:xlink="http://www.w3.org/1999/xlink" version="1.1" x="0px" y="0px" viewBox="0 0 100 125" enable-background="new 0 0 100 100" xml:space="preserve"><path fill="#000000" d="M83.854,81C87.794,81,91,77.794,91,73.854V25.146C91,21.206,87.794,18,83.854,18H16.146  C12.206,18,9,21.206,9,25.146v48.707C9,77.794,12.206,81,16.146,81H83.854z M13,73.854V25.146C13,23.412,14.412,22,16.146,22h67.707  C85.588,22,87,23.412,87,25.146v48.707C87,75.588,85.588,77,83.854,77H16.146C14.412,77,13,75.588,13,73.854z"/><path fill="#000000" d="M40.295,65.43C40.295,65.43,40.295,65.43,40.295,65.43c0.754,0,1.522-0.253,2.243-0.727l19.817-12.325  c0.047-0.029,0.093-0.061,0.137-0.093c0.247-0.183,1.475-1.179,1.475-2.797c0-1.68-1.362-2.674-1.687-2.89l-19.701-12.3  c-0.762-0.5-1.53-0.753-2.284-0.753c-1.64,0-3.295,1.23-3.295,3.98V61.45C37,64.199,38.655,65.43,40.295,65.43z M41,38.027  l18.389,11.486L41,60.95V38.027z"/><text x="0" y="115" fill="#000000" font-size="5px" font-weight="bold" font-family="'Helvetica Neue', Helvetica, Arial-Unicode, Arial, Sans-serif">Created by Austin Condiff</text><text x="0" y="120" fill="#000000" font-size="5px" font-weight="bold" font-family="'Helvetica Neue', Helvetica, Arial-Unicode, Arial, Sans-serif">from the Noun Project</text></svg>